<svg width="24" height="24" viewBox="0 0 24 24" fill="none" xmlns="http://www.w3.org/2000/svg">
<path d="M2.00003 9.99997L10.7506 2.99948C11.481 2.41513 12.519 2.41513 13.2494 2.99948L22 9.99997" stroke="#F03226" stroke-width="1.5" stroke-linecap="round" stroke-linejoin="round"/>
<path d="M9.47766 4.04946L5.47766 7.29946C4.75141 7.88953 4.38828 8.18458 4.19415 8.59242C4.00003 9.00027 4.00003 9.46816 4.00003 10.4039V14C4.00003 17.7712 4.00003 19.6569 5.1716 20.8284C6.34318 22 8.22879 22 12 22C15.7712 22 17.6569 22 18.8284 20.8284C20 19.6569 20 17.7712 20 14V10.4039C20 9.46816 20 9.00027 19.8059 8.59242C19.6117 8.18458 19.2486 7.88953 18.5224 7.29946L14.5224 4.04946C13.3142 3.0678 12.7101 2.57697 12 2.57697C11.2899 2.57697 10.6858 3.0678 9.47766 4.04946Z" fill="#F03226" stroke="#F03226" stroke-width="1.5"/>
<path d="M9.75003 16.25H14.25" stroke="white" stroke-width="1.5" stroke-linecap="round"/>
</svg>
