<svg width="13" height="11" viewBox="0 0 13 11" fill="none" xmlns="http://www.w3.org/2000/svg">
<path d="M6.22803 0.942566C8.51639 0.942566 9.9519 1.28312 10.8827 2.04646C11.8135 2.8098 12.2284 3.988 12.2284 5.86619C12.2284 7.74438 11.8135 8.9226 10.8827 9.68594C9.9519 10.4493 8.51639 10.7898 6.22803 10.7898C3.93966 10.7898 2.50414 10.4493 1.5741 9.68594C0.644058 8.9226 0.228394 7.74438 0.228394 5.86619C0.228394 3.988 0.643315 2.8098 1.5741 2.04646C2.50488 1.28312 3.93966 0.942566 6.22803 0.942566ZM6.22803 10.06C10.1434 10.06 11.3377 9.08038 11.3377 5.8668C11.3377 2.65323 10.1441 1.67362 6.22803 1.67362C2.3119 1.67362 1.11911 2.65323 1.11911 5.8668C1.11911 9.08038 2.31264 10.0606 6.22803 10.0606V10.06Z" fill="#BDBDBD"/>
<path d="M11.6235 4.53629H0.838533C0.720419 4.53629 0.607148 4.49778 0.523629 4.42923C0.440109 4.36068 0.393188 4.26771 0.393188 4.17077C0.393188 4.07382 0.440109 3.98085 0.523629 3.91231C0.607148 3.84376 0.720419 3.80524 0.838533 3.80524H11.6235C11.7416 3.80524 11.8549 3.84376 11.9384 3.91231C12.0219 3.98085 12.0688 4.07382 12.0688 4.17077C12.0688 4.26771 12.0219 4.36068 11.9384 4.42923C11.8549 4.49778 11.7416 4.53629 11.6235 4.53629Z" fill="#BDBDBD"/>
<path d="M8.87034 6.4717H8.86514C8.74703 6.4717 8.63376 6.4332 8.55024 6.36465C8.46672 6.2961 8.4198 6.20312 8.4198 6.10617C8.4198 6.00923 8.46672 5.91626 8.55024 5.84771C8.63376 5.77916 8.74703 5.74066 8.86514 5.74066H8.87034C8.98846 5.74066 9.10174 5.77916 9.18526 5.84771C9.26878 5.91626 9.3157 6.00923 9.3157 6.10617C9.3157 6.20312 9.26878 6.2961 9.18526 6.36465C9.10174 6.4332 8.98846 6.4717 8.87034 6.4717Z" fill="#BDBDBD"/>
<path d="M6.23607 6.4717H6.23088C6.11276 6.4717 5.99948 6.4332 5.91596 6.36465C5.83244 6.2961 5.78552 6.20312 5.78552 6.10617C5.78552 6.00923 5.83244 5.91626 5.91596 5.84771C5.99948 5.77916 6.11276 5.74066 6.23088 5.74066H6.23607C6.35418 5.74066 6.46746 5.77916 6.55098 5.84771C6.6345 5.91626 6.68142 6.00923 6.68142 6.10617C6.68142 6.20312 6.6345 6.2961 6.55098 6.36465C6.46746 6.4332 6.35418 6.4717 6.23607 6.4717Z" fill="#BDBDBD"/>
<path d="M3.59618 6.4717H3.59099C3.47287 6.4717 3.35959 6.4332 3.27607 6.36465C3.19255 6.2961 3.14563 6.20312 3.14563 6.10617C3.14563 6.00923 3.19255 5.91626 3.27607 5.84771C3.35959 5.77916 3.47287 5.74066 3.59099 5.74066H3.59618C3.7143 5.74066 3.82757 5.77916 3.91109 5.84771C3.99461 5.91626 4.04153 6.00923 4.04153 6.10617C4.04153 6.20312 3.99461 6.2961 3.91109 6.36465C3.82757 6.4332 3.7143 6.4717 3.59618 6.4717Z" fill="#BDBDBD"/>
<path d="M8.87034 8.36521H8.86514C8.74703 8.36521 8.63376 8.32669 8.55024 8.25814C8.46672 8.1896 8.4198 8.09663 8.4198 7.99968C8.4198 7.90274 8.46672 7.80975 8.55024 7.74121C8.63376 7.67266 8.74703 7.63416 8.86514 7.63416H8.87034C8.98846 7.63416 9.10174 7.67266 9.18526 7.74121C9.26878 7.80975 9.3157 7.90274 9.3157 7.99968C9.3157 8.09663 9.26878 8.1896 9.18526 8.25814C9.10174 8.32669 8.98846 8.36521 8.87034 8.36521Z" fill="#BDBDBD"/>
<path d="M6.23607 8.36521H6.23088C6.11276 8.36521 5.99948 8.32669 5.91596 8.25814C5.83244 8.1896 5.78552 8.09663 5.78552 7.99968C5.78552 7.90274 5.83244 7.80975 5.91596 7.74121C5.99948 7.67266 6.11276 7.63416 6.23088 7.63416H6.23607C6.35418 7.63416 6.46746 7.67266 6.55098 7.74121C6.6345 7.80975 6.68142 7.90274 6.68142 7.99968C6.68142 8.09663 6.6345 8.1896 6.55098 8.25814C6.46746 8.32669 6.35418 8.36521 6.23607 8.36521Z" fill="#BDBDBD"/>
<path d="M3.59618 8.36521H3.59099C3.47287 8.36521 3.35959 8.32669 3.27607 8.25814C3.19255 8.1896 3.14563 8.09663 3.14563 7.99968C3.14563 7.90274 3.19255 7.80975 3.27607 7.74121C3.35959 7.67266 3.47287 7.63416 3.59099 7.63416H3.59618C3.7143 7.63416 3.82757 7.67266 3.91109 7.74121C3.99461 7.80975 4.04153 7.90274 4.04153 7.99968C4.04153 8.09663 3.99461 8.1896 3.91109 8.25814C3.82757 8.32669 3.7143 8.36521 3.59618 8.36521Z" fill="#BDBDBD"/>
<path d="M8.62919 2.56429C8.51108 2.56429 8.3978 2.52577 8.31428 2.45722C8.23076 2.38867 8.18384 2.2957 8.18384 2.19876V0.595308C8.18384 0.498364 8.23076 0.405397 8.31428 0.336848C8.3978 0.268298 8.51108 0.229797 8.62919 0.229797C8.74731 0.229797 8.86058 0.268298 8.9441 0.336848C9.02762 0.405397 9.07454 0.498364 9.07454 0.595308V2.19876C9.07454 2.2957 9.02762 2.38867 8.9441 2.45722C8.86058 2.52577 8.74731 2.56429 8.62919 2.56429Z" fill="#BDBDBD"/>
<path d="M3.83292 2.56429C3.7148 2.56429 3.60153 2.52577 3.51801 2.45722C3.43449 2.38867 3.38757 2.2957 3.38757 2.19876V0.595308C3.38757 0.547306 3.39909 0.499791 3.42147 0.455443C3.44385 0.411096 3.47666 0.37079 3.51801 0.336848C3.55937 0.302905 3.60846 0.27598 3.6625 0.25761C3.71653 0.239241 3.77443 0.229797 3.83292 0.229797C3.8914 0.229797 3.94932 0.239241 4.00335 0.25761C4.05738 0.27598 4.10648 0.302905 4.14783 0.336848C4.18919 0.37079 4.22199 0.411096 4.24438 0.455443C4.26676 0.499791 4.27827 0.547306 4.27827 0.595308V2.19876C4.27827 2.2957 4.23135 2.38867 4.14783 2.45722C4.06431 2.52577 3.95103 2.56429 3.83292 2.56429Z" fill="#BDBDBD"/>
</svg>
