<svg width="25" height="24" viewBox="0 0 25 24" fill="none" xmlns="http://www.w3.org/2000/svg">
<path d="M3.77971 13.5478C3.89206 11.7501 3.97326 10.4751 4.16153 9.51034C4.34566 8.56678 4.61454 8.02398 5.03252 7.63131C5.4505 7.23864 6.00901 7.00414 6.96222 6.87923C7.93684 6.75151 9.21443 6.75 11.0156 6.75H13.9844C15.7855 6.75 17.0631 6.75151 18.0378 6.87923C18.991 7.00414 19.5495 7.23864 19.9675 7.63131C20.3854 8.02398 20.6543 8.56678 20.8385 9.51034C21.0267 10.4751 21.1079 11.7501 21.2203 13.5478C21.3461 15.5618 21.4341 16.9951 21.3529 18.0854C21.2734 19.1541 21.0379 19.7708 20.6109 20.2253C20.1839 20.6798 19.5831 20.9533 18.5215 21.0993C17.4384 21.2483 16.0024 21.25 13.9844 21.25H11.0156C8.99762 21.25 7.56161 21.2483 6.47848 21.0993C5.41685 20.9533 4.81606 20.6798 4.3891 20.2253C3.96213 19.7708 3.72657 19.1541 3.64705 18.0854C3.56592 16.9951 3.65383 15.5618 3.77971 13.5478Z" stroke="#BDBDBD" stroke-width="1.5"/>
<path fill-rule="evenodd" clip-rule="evenodd" d="M8.35158 9C8.88955 9 9.23211 8.3671 9.10267 7.84493C9.03559 7.57434 9 7.29133 9 7C9 5.067 10.567 3.5 12.5 3.5C14.433 3.5 16 5.067 16 7C16 7.29133 15.9644 7.57434 15.8973 7.84493C15.7679 8.3671 16.1105 9 16.6484 9C16.913 9 17.1563 8.84454 17.2406 8.59377C17.4088 8.0932 17.5 7.55725 17.5 7C17.5 4.23858 15.2614 2 12.5 2C9.73858 2 7.5 4.23858 7.5 7C7.5 7.55725 7.59116 8.0932 7.75938 8.59377C7.84365 8.84454 8.08703 9 8.35158 9Z" fill="#BDBDBD"/>
<path d="M9 13C9.27614 13 9.5 12.7761 9.5 12.5C9.5 12.2239 9.27614 12 9 12C8.72386 12 8.5 12.2239 8.5 12.5C8.5 12.7761 8.72386 13 9 13Z" stroke="#BDBDBD"/>
<path d="M16 13C16.2761 13 16.5 12.7761 16.5 12.5C16.5 12.2239 16.2761 12 16 12C15.7239 12 15.5 12.2239 15.5 12.5C15.5 12.7761 15.7239 13 16 13Z" stroke="#BDBDBD"/>
</svg>
