<svg width="25" height="24" viewBox="0 0 25 24" fill="none" xmlns="http://www.w3.org/2000/svg">
<path d="M3.5 12C3.5 8.25027 3.5 6.3754 4.45491 5.06107C4.76331 4.6366 5.1366 4.26331 5.56107 3.95491C6.8754 3 8.75027 3 12.5 3C16.2497 3 18.1246 3 19.4389 3.95491C19.8634 4.26331 20.2367 4.6366 20.5451 5.06107C21.5 6.3754 21.5 8.25027 21.5 12C21.5 15.7497 21.5 17.6246 20.5451 18.9389C20.2367 19.3634 19.8634 19.7367 19.4389 20.0451C18.1246 21 16.2497 21 12.5 21H3.5V12Z" stroke="#BDBDBD" stroke-width="1.5" stroke-linejoin="round"/>
<path d="M8.25 14.25H13.75" stroke="#BDBDBD" stroke-width="1.5" stroke-linecap="round"/>
<path d="M8.25 10.25H16.75" stroke="#BDBDBD" stroke-width="1.5" stroke-linecap="round"/>
</svg>
